<?xml version="1.0" encoding="UTF-8"?>
<svg xmlns="http://www.w3.org/2000/svg" width="1280" height="1280" viewBox="0 0 1280 1280">
  <path d="M704,320 h64v64h-64z M512,384 h64v64h-64z M704,384 h64v64h-64z M512,448 h64v64h-64z M576,448 h64v64h-64z M512,512 h64v64h-64z M576,512 h64v64h-64z M640,512 h64v64h-64z M512,576 h64v64h-64z M512,640 h64v64h-64z M704,640 h64v64h-64z M768,640 h64v64h-64z M512,704 h64v64h-64z M704,704 h64v64h-64z M768,704 h64v64h-64z M384,896 h64v64h-64z M448,896 h64v64h-64z M512,896 h64v64h-64z M640,896 h64v64h-64z M704,896 h64v64h-64z M768,896 h64v64h-64z M384,960 h64v64h-64z M448,960 h64v64h-64z M512,960 h64v64h-64z M640,960 h64v64h-64z M704,960 h64v64h-64z M768,960 h64v64h-64z M832,960 h64v64h-64z M896,960 h64v64h-64z M640,1024 h64v64h-64z" fill="#000000"/>
</svg>